<svg width="28" height="26" viewBox="0 0 28 26" fill="none" xmlns="http://www.w3.org/2000/svg">
<path d="M14 20.9444C15.75 20.9444 17.2377 20.3123 18.4632 19.0479C19.6887 17.7835 20.3009 16.249 20.3 14.4444C20.3 12.6389 19.6873 11.1039 18.4618 9.83955C17.2363 8.57518 15.7491 7.94348 14 7.94444C12.25 7.94444 10.7623 8.57663 9.5368 9.841C8.31133 11.1054 7.69907 12.6399 7.7 14.4444C7.7 16.25 8.31273 17.785 9.5382 19.0493C10.7637 20.3137 12.2509 20.9454 14 20.9444ZM14 19.5L12.46 16.0333L9.1 14.4444L12.46 12.8556L14 9.38889L15.54 12.8556L18.9 14.4444L15.54 16.0333L14 19.5ZM2.8 26C2.03 26 1.3706 25.7169 0.821802 25.1507C0.273002 24.5844 -0.000930956 23.9046 2.37691e-06 23.1111V5.77778C2.37691e-06 4.98333 0.274402 4.303 0.823202 3.73678C1.372 3.17056 2.03094 2.88793 2.8 2.88889H7.21L9.8 0H18.2L20.79 2.88889H25.2C25.97 2.88889 26.6294 3.172 27.1782 3.73822C27.727 4.30444 28.0009 4.9843 28 5.77778V23.1111C28 23.9056 27.7256 24.5859 27.1768 25.1521C26.628 25.7183 25.9691 26.001 25.2 26H2.8Z" fill="white"/>
</svg>
