<svg width="17" height="17" viewBox="0 0 17 17" fill="none" xmlns="http://www.w3.org/2000/svg">
<path d="M1.88889 17C1.36945 17 0.924612 16.8149 0.55439 16.4447C0.184168 16.0744 -0.000628026 15.6299 1.60347e-06 15.1111V1.88889C1.60347e-06 1.36945 0.185113 0.924612 0.555335 0.55439C0.925557 0.184168 1.37008 -0.000628026 1.88889 1.60347e-06H15.1111C15.6306 1.60347e-06 16.0754 0.185113 16.4456 0.555335C16.8158 0.925557 17.0006 1.37008 17 1.88889V15.1111C17 15.6306 16.8149 16.0754 16.4447 16.4456C16.0744 16.8158 15.6299 17.0006 15.1111 17H1.88889ZM1.88889 15.1111H15.1111V1.88889H1.88889V15.1111ZM4.72222 13.2222C4.98982 13.2222 5.21428 13.1316 5.39561 12.9502C5.57695 12.7689 5.6673 12.5447 5.66667 12.2778C5.66667 12.0102 5.576 11.7857 5.39467 11.6044C5.21333 11.4231 4.98919 11.3327 4.72222 11.3333C4.45463 11.3333 4.23017 11.424 4.04883 11.6053C3.8675 11.7867 3.77715 12.0108 3.77778 12.2778C3.77778 12.5454 3.86845 12.7698 4.04978 12.9512C4.23111 13.1325 4.45526 13.2229 4.72222 13.2222ZM4.72222 9.44444C4.98982 9.44444 5.21428 9.35378 5.39561 9.17244C5.57695 8.99111 5.6673 8.76696 5.66667 8.5C5.66667 8.23241 5.576 8.00794 5.39467 7.82661C5.21333 7.64528 4.98919 7.55493 4.72222 7.55556C4.45463 7.55556 4.23017 7.64622 4.04883 7.82756C3.8675 8.00889 3.77715 8.23304 3.77778 8.5C3.77778 8.76759 3.86845 8.99206 4.04978 9.17339C4.23111 9.35472 4.45526 9.44507 4.72222 9.44444ZM4.72222 5.66667C4.98982 5.66667 5.21428 5.576 5.39561 5.39467C5.57695 5.21333 5.6673 4.98919 5.66667 4.72222C5.66667 4.45463 5.576 4.23017 5.39467 4.04883C5.21333 3.8675 4.98919 3.77715 4.72222 3.77778C4.45463 3.77778 4.23017 3.86845 4.04883 4.04978C3.8675 4.23111 3.77715 4.45526 3.77778 4.72222C3.77778 4.98982 3.86845 5.21428 4.04978 5.39561C4.23111 5.57695 4.45526 5.6673 4.72222 5.66667ZM8.5 13.2222H12.2778C12.5454 13.2222 12.7698 13.1316 12.9512 12.9502C13.1325 12.7689 13.2229 12.5447 13.2222 12.2778C13.2222 12.0102 13.1316 11.7857 12.9502 11.6044C12.7689 11.4231 12.5447 11.3327 12.2778 11.3333H8.5C8.23241 11.3333 8.00794 11.424 7.82661 11.6053C7.64528 11.7867 7.55493 12.0108 7.55556 12.2778C7.55556 12.5454 7.64622 12.7698 7.82756 12.9512C8.00889 13.1325 8.23304 13.2229 8.5 13.2222ZM8.5 9.44444H12.2778C12.5454 9.44444 12.7698 9.35378 12.9512 9.17244C13.1325 8.99111 13.2229 8.76696 13.2222 8.5C13.2222 8.23241 13.1316 8.00794 12.9502 7.82661C12.7689 7.64528 12.5447 7.55493 12.2778 7.55556H8.5C8.23241 7.55556 8.00794 7.64622 7.82661 7.82756C7.64528 8.00889 7.55493 8.23304 7.55556 8.5C7.55556 8.76759 7.64622 8.99206 7.82756 9.17339C8.00889 9.35472 8.23304 9.44507 8.5 9.44444ZM8.5 5.66667H12.2778C12.5454 5.66667 12.7698 5.576 12.9512 5.39467C13.1325 5.21333 13.2229 4.98919 13.2222 4.72222C13.2222 4.45463 13.1316 4.23017 12.9502 4.04883C12.7689 3.8675 12.5447 3.77715 12.2778 3.77778H8.5C8.23241 3.77778 8.00794 3.86845 7.82661 4.04978C7.64528 4.23111 7.55493 4.45526 7.55556 4.72222C7.55556 4.98982 7.64622 5.21428 7.82756 5.39561C8.00889 5.57695 8.23304 5.6673 8.5 5.66667Z" fill="white"/>
</svg>
