<svg width="16" height="17" viewBox="0 0 16 17" fill="none" xmlns="http://www.w3.org/2000/svg">
<path d="M8.63281 7.85254C8.8431 7.93555 9.04785 8.02686 9.24707 8.12646C9.44629 8.22607 9.63997 8.33952 9.82812 8.4668C9.70638 8.59961 9.5957 8.73796 9.49609 8.88184C9.39648 9.02572 9.30518 9.18066 9.22217 9.34668C8.79606 9.06999 8.34229 8.8597 7.86084 8.71582C7.37939 8.57194 6.88411 8.5 6.375 8.5C5.88802 8.5 5.41764 8.56364 4.96387 8.69092C4.51009 8.8182 4.08675 8.99528 3.69385 9.22217C3.30094 9.44906 2.94401 9.72575 2.62305 10.0522C2.30208 10.3787 2.02539 10.7384 1.79297 11.1313C1.56055 11.5243 1.3807 11.9476 1.25342 12.4014C1.12614 12.8551 1.0625 13.3255 1.0625 13.8125H0C0 13.1484 0.0968424 12.5093 0.290527 11.895C0.484212 11.2808 0.763672 10.7135 1.12891 10.1934C1.49414 9.67318 1.92578 9.2111 2.42383 8.80713C2.92188 8.40316 3.48633 8.08496 4.11719 7.85254C3.49186 7.44303 3.00488 6.92839 2.65625 6.30859C2.30762 5.6888 2.13053 5.0026 2.125 4.25C2.125 3.66341 2.23568 3.11279 2.45703 2.59814C2.67839 2.0835 2.97998 1.63249 3.36182 1.24512C3.74365 0.857747 4.19466 0.553385 4.71484 0.332031C5.23503 0.110677 5.78841 0 6.375 0C6.96159 0 7.51221 0.110677 8.02686 0.332031C8.5415 0.553385 8.99251 0.85498 9.37988 1.23682C9.76725 1.61865 10.0716 2.06966 10.293 2.58984C10.5143 3.11003 10.625 3.66341 10.625 4.25C10.625 4.61523 10.5807 4.97217 10.4922 5.3208C10.4036 5.66943 10.2708 5.9987 10.0938 6.30859C9.91667 6.61849 9.70915 6.90348 9.47119 7.16357C9.23324 7.42367 8.95378 7.65332 8.63281 7.85254ZM3.1875 4.25C3.1875 4.69271 3.27051 5.10498 3.43652 5.48682C3.60254 5.86865 3.82943 6.20622 4.11719 6.49951C4.40495 6.79281 4.74251 7.02246 5.12988 7.18848C5.51725 7.35449 5.93229 7.4375 6.375 7.4375C6.81217 7.4375 7.22445 7.35449 7.61182 7.18848C7.99919 7.02246 8.33675 6.79557 8.62451 6.50781C8.91227 6.22005 9.14193 5.88249 9.31348 5.49512C9.48503 5.10775 9.56803 4.69271 9.5625 4.25C9.5625 3.81283 9.47949 3.40055 9.31348 3.01318C9.14746 2.62581 8.92057 2.28825 8.63281 2.00049C8.34505 1.71273 8.00472 1.48307 7.61182 1.31152C7.21891 1.13997 6.80664 1.05697 6.375 1.0625C5.93229 1.0625 5.52002 1.14551 5.13818 1.31152C4.75635 1.47754 4.41878 1.70443 4.12549 1.99219C3.83219 2.27995 3.60254 2.62028 3.43652 3.01318C3.27051 3.40609 3.1875 3.81836 3.1875 4.25ZM15.4062 11.1562C15.4062 11.444 15.362 11.7235 15.2734 11.9946C15.1849 12.2658 15.0521 12.5176 14.875 12.75V17L12.75 15.9375L10.625 17V12.75C10.4535 12.5176 10.3234 12.2658 10.2349 11.9946C10.1463 11.7235 10.0993 11.444 10.0938 11.1562C10.0938 10.791 10.1629 10.4479 10.3013 10.127C10.4396 9.80599 10.6278 9.52653 10.8657 9.28857C11.1037 9.05062 11.3859 8.8597 11.7124 8.71582C12.0389 8.57194 12.3848 8.5 12.75 8.5C13.1152 8.5 13.4583 8.56917 13.7793 8.70752C14.1003 8.84587 14.3797 9.03678 14.6177 9.28027C14.8556 9.52376 15.0465 9.80599 15.1904 10.127C15.3343 10.4479 15.4062 10.791 15.4062 11.1562ZM12.75 9.5625C12.5286 9.5625 12.3211 9.604 12.1274 9.68701C11.9338 9.77002 11.765 9.88346 11.6211 10.0273C11.4772 10.1712 11.3638 10.34 11.2808 10.5337C11.1978 10.7274 11.1562 10.9349 11.1562 11.1562C11.1562 11.3776 11.1978 11.5851 11.2808 11.7788C11.3638 11.9725 11.4772 12.1413 11.6211 12.2852C11.765 12.429 11.9338 12.5425 12.1274 12.6255C12.3211 12.7085 12.5286 12.75 12.75 12.75C12.9714 12.75 13.1789 12.7085 13.3726 12.6255C13.5662 12.5425 13.735 12.429 13.8789 12.2852C14.0228 12.1413 14.1362 11.9725 14.2192 11.7788C14.3022 11.5851 14.3438 11.3776 14.3438 11.1562C14.3438 10.9349 14.3022 10.7274 14.2192 10.5337C14.1362 10.34 14.0228 10.1712 13.8789 10.0273C13.735 9.88346 13.5662 9.77002 13.3726 9.68701C13.1789 9.604 12.9714 9.5625 12.75 9.5625ZM13.8125 15.2817V13.5884C13.4805 13.7378 13.1263 13.8125 12.75 13.8125C12.3737 13.8125 12.0195 13.7378 11.6875 13.5884V15.2817C11.8646 15.1932 12.0417 15.1074 12.2188 15.0244C12.3958 14.9414 12.5729 14.8501 12.75 14.7505C12.9271 14.8446 13.1042 14.9331 13.2812 15.0161C13.4583 15.0991 13.6354 15.1877 13.8125 15.2817Z" fill="white"/>
</svg>
