<svg width="34" height="23" viewBox="0 0 34 23" fill="none" xmlns="http://www.w3.org/2000/svg">
<path d="M17 6.9C18.2296 6.9 19.4089 7.38464 20.2784 8.24731C21.1479 9.10998 21.6364 10.28 21.6364 11.5C21.6364 12.72 21.1479 13.89 20.2784 14.7527C19.4089 15.6154 18.2296 16.1 17 16.1C15.7704 16.1 14.5911 15.6154 13.7216 14.7527C12.8521 13.89 12.3636 12.72 12.3636 11.5C12.3636 10.28 12.8521 9.10998 13.7216 8.24731C14.5911 7.38464 15.7704 6.9 17 6.9ZM17 0C24.7273 0 31.3264 4.76867 34 11.5C31.3264 18.2313 24.7273 23 17 23C9.27273 23 2.67364 18.2313 0 11.5C2.67364 4.76867 9.27273 0 17 0ZM3.36909 11.5C4.61821 14.0305 6.55784 16.1625 8.96747 17.6537C11.3771 19.1448 14.1601 19.9354 17 19.9354C19.8399 19.9354 22.6229 19.1448 25.0325 17.6537C27.4422 16.1625 29.3818 14.0305 30.6309 11.5C29.3818 8.96953 27.4422 6.83752 25.0325 5.34634C22.6229 3.85517 19.8399 3.06464 17 3.06464C14.1601 3.06464 11.3771 3.85517 8.96747 5.34634C6.55784 6.83752 4.61821 8.96953 3.36909 11.5Z" fill="white"/>
</svg>
