<svg width="17" height="17" viewBox="0 0 17 17" fill="none" xmlns="http://www.w3.org/2000/svg">
<path d="M16.5503 2.64594L8.70472 0.0307256C8.57159 -0.0102419 8.42922 -0.0102419 8.29609 0.0307256L0.458636 2.64594H0.442291L0.360566 2.6868H0.352393L0.270668 2.73583C0.270668 2.74401 0.262496 2.74401 0.254323 2.75218L0.188943 2.80939L0.131735 2.87477C0.131735 2.88294 0.123563 2.88294 0.123563 2.89111L0.0745273 2.96466C0.0745273 2.97284 0.0745273 2.97284 0.0663548 2.98101L0.0336647 3.05456L0.00914718 3.14446V3.16898C0.00108611 3.201 -0.00167465 3.23413 0.000974615 3.26705V9.80507C0.000974615 9.97847 0.0698571 10.1448 0.192469 10.2674C0.315081 10.39 0.481378 10.4589 0.654777 10.4589C0.828176 10.4589 0.994473 10.39 1.11708 10.2674C1.2397 10.1448 1.30858 9.97847 1.30858 9.80507V4.1742L4.05455 5.08952C3.53867 5.91527 3.26669 6.87002 3.26999 7.84366C3.27029 8.72916 3.4954 9.60009 3.92422 10.3748C4.35304 11.1496 4.97154 11.8028 5.72175 12.2732C4.16275 12.8629 2.83182 13.9334 1.92152 15.3297C1.82873 15.4764 1.7973 15.6537 1.83399 15.8234C1.87067 15.9931 1.97255 16.1416 2.11766 16.2369C2.18887 16.284 2.26874 16.3166 2.35264 16.3327C2.43653 16.3488 2.52279 16.3481 2.6064 16.3306C2.69002 16.3131 2.76934 16.2792 2.83976 16.2309C2.91017 16.1825 2.9703 16.1206 3.01664 16.0489C3.61007 15.1348 4.42259 14.3835 5.38031 13.8634C6.33803 13.3434 7.41058 13.0709 8.50041 13.0709C9.59023 13.0709 10.6628 13.3434 11.6205 13.8634C12.5782 14.3835 13.3907 15.1348 13.9842 16.0489C14.0439 16.1395 14.1252 16.2139 14.2208 16.2652C14.3163 16.3166 14.4232 16.3433 14.5317 16.3431C14.657 16.3444 14.7796 16.3073 14.8832 16.2369C15.0283 16.1416 15.1301 15.9931 15.1668 15.8234C15.2035 15.6537 15.1721 15.4764 15.0793 15.3297C14.169 13.9334 12.8381 12.8629 11.2791 12.2732C12.0293 11.8028 12.6478 11.1496 13.0766 10.3748C13.5054 9.60009 13.7305 8.72916 13.7308 7.84366C13.7341 6.87002 13.4621 5.91527 12.9463 5.08952L16.5503 3.88816C16.6812 3.84517 16.795 3.76197 16.8758 3.65044C16.9565 3.53891 17 3.40474 17 3.26705C17 3.12936 16.9565 2.99518 16.8758 2.88365C16.795 2.77212 16.6812 2.68893 16.5503 2.64594ZM12.4232 7.84366C12.4232 8.88406 12.0099 9.88184 11.2743 10.6175C10.5386 11.3532 9.5408 11.7665 8.50041 11.7665C7.46001 11.7665 6.46223 11.3532 5.72656 10.6175C4.99089 9.88184 4.57759 8.88406 4.57759 7.84366C4.57917 7.00658 4.84518 6.19139 5.33764 5.51449L8.29609 6.50337C8.4288 6.54703 8.57201 6.54703 8.70472 6.50337L11.6632 5.51449C12.1556 6.19139 12.4216 7.00658 12.4232 7.84366ZM11.6632 4.14151H11.655L8.50041 5.19576L5.34581 4.14151H5.33764L2.72243 3.26705L8.50041 1.33833L14.2784 3.26705L11.6632 4.14151Z" fill="white"/>
</svg>
