<svg width="29" height="33" viewBox="0 0 29 33" fill="none" xmlns="http://www.w3.org/2000/svg">
<path d="M4.1543 5.76929L5.64468 29.6154C5.71547 30.9933 6.71776 32.0001 8.0293 32.0001H21.7408C23.0576 32.0001 24.0412 30.9933 24.1255 29.6154L25.6158 5.76929" stroke="#6464F6" stroke-width="2" stroke-linecap="round" stroke-linejoin="round"/>
<path d="M1.76953 5.76929H28.0003H1.76953Z" fill="black"/>
<path d="M1.76953 5.76929H28.0003" stroke="#6464F6" stroke-width="2" stroke-miterlimit="10" stroke-linecap="round"/>
<path d="M10.1157 5.76924V2.78847C10.115 2.55341 10.1608 2.32054 10.2504 2.10324C10.3401 1.88594 10.4718 1.68851 10.638 1.5223C10.8042 1.35609 11.0016 1.22438 11.2189 1.13474C11.4362 1.04511 11.6691 0.999319 11.9041 1.00001H17.8657C18.1007 0.999319 18.3336 1.04511 18.5509 1.13474C18.7682 1.22438 18.9656 1.35609 19.1319 1.5223C19.2981 1.68851 19.4298 1.88594 19.5194 2.10324C19.609 2.32054 19.6548 2.55341 19.6541 2.78847V5.76924M14.8849 10.5385V27.2308M9.51953 10.5385L10.1157 27.2308M20.2503 10.5385L19.6541 27.2308" stroke="#6464F6" stroke-width="2" stroke-linecap="round" stroke-linejoin="round"/>
</svg>
