<svg width="51" height="51" viewBox="0 0 51 51" fill="none" xmlns="http://www.w3.org/2000/svg">
<g clip-path="url(#clip0_273_3371)">
<path d="M33.8912 44.38V40.1845C33.8912 37.959 33.0071 35.8248 31.4335 34.2511C29.8599 32.6775 27.7256 31.7935 25.5001 31.7935H10.8158C8.59039 31.7935 6.4561 32.6775 4.88248 34.2511C3.30886 35.8248 2.4248 37.959 2.4248 40.1845V44.38" stroke="white" stroke-width="3" stroke-linecap="round" stroke-linejoin="round"/>
<path d="M18.1576 23.4027C22.7919 23.4027 26.5487 19.6459 26.5487 15.0116C26.5487 10.3774 22.7919 6.62061 18.1576 6.62061C13.5234 6.62061 9.7666 10.3774 9.7666 15.0116C9.7666 19.6459 13.5234 23.4027 18.1576 23.4027Z" stroke="white" stroke-width="3" stroke-linecap="round" stroke-linejoin="round"/>
<path d="M42.2822 17.1094V29.6959" stroke="white" stroke-width="3" stroke-linecap="round" stroke-linejoin="round"/>
<path d="M48.5758 23.4023H35.9893" stroke="white" stroke-width="3" stroke-linecap="round" stroke-linejoin="round"/>
</g>
<defs>
<clipPath id="clip0_273_3371">
<rect width="50.3462" height="50.3462" fill="white" transform="translate(0.327148 0.327148)"/>
</clipPath>
</defs>
</svg>
